<svg width="45" height="45" viewBox="0 0 45 45" fill="none" xmlns="http://www.w3.org/2000/svg">
<path d="M41.6119 4.93011C37.4188 1.70704 32.3977 0 27.0976 0C13.9663 0 3.28008 10.6842 3.28008 23.8185C3.28008 26.7906 3.82409 29.6937 4.89611 32.4497C4.98311 32.6787 5.16112 32.6367 5.25412 32.6057C5.48712 32.5327 14.8313 28.8786 14.8313 28.8786C14.9723 28.8246 15.0453 28.6646 14.9883 28.5216C14.4083 27.0276 14.1123 25.4436 14.1113 23.8165C14.1113 16.6564 19.9364 10.8322 27.0966 10.8322C29.9897 10.8322 32.7227 11.7593 35.0038 13.5163C35.0658 13.5613 35.1378 13.5823 35.2108 13.5733C35.2828 13.5623 35.3518 13.5263 35.3968 13.4673L41.6619 5.32112C41.7069 5.26512 41.7259 5.18912 41.7189 5.11711C41.7089 5.04111 41.6689 4.97511 41.6119 4.93011Z" fill="#9C4040"/>
<path d="M24.6826 12.3673C24.6166 12.3063 24.5236 12.2833 24.4356 12.3033C21.8605 12.8993 19.5274 14.3683 17.8664 16.4414C17.8054 16.5184 17.7914 16.6174 17.8214 16.7074C17.8554 16.7974 17.9304 16.8684 18.0244 16.8854C18.8574 17.0684 19.6925 17.4424 20.5095 17.9974C20.5595 18.0314 20.6125 18.0454 20.6655 18.0454C20.7305 18.0454 20.7955 18.0234 20.8495 17.9784C21.9975 16.9834 23.2995 16.2004 24.7246 15.6544C24.8506 15.6074 24.9216 15.4763 24.8986 15.3443C24.7146 14.3653 24.6736 13.4443 24.7736 12.6073C24.7846 12.5183 24.7496 12.4283 24.6826 12.3673Z" fill="#9C4040"/>
<path d="M29.6887 15.9014C23.2415 15.9014 17.9944 20.6335 17.9944 26.4536C17.9944 29.0427 18.5674 31.5807 19.5694 33.4207C20.5165 35.1638 18.7074 37.0838 17.2564 38.6239C16.2634 39.6779 15.4783 40.5109 15.6393 41.1979C15.7083 41.4989 15.9454 41.7259 16.3424 41.8779C16.8414 42.0659 17.4434 42.1669 18.0814 42.1669C19.8874 42.1669 21.6725 41.3819 22.8595 40.0669C24.3055 38.4659 24.9156 36.0988 24.6185 33.2187C24.5445 32.4827 24.6936 31.8507 25.0276 31.4807C25.2276 31.2567 25.4876 31.1377 25.7766 31.1377C26.9996 31.1377 29.0056 33.2757 29.5317 39.1699C29.8787 43.039 33.3857 44.999 39.9569 44.999C39.9569 44.999 40.4849 44.999 40.5859 44.69C40.7309 44.247 40.1909 43.754 38.8089 42.58C37.4898 41.4579 35.4958 39.7629 35.5998 38.7739C35.6228 38.5379 35.7808 38.3419 36.0788 38.1809C37.0998 37.6208 37.6798 36.9928 37.7878 36.2958C37.8698 35.7508 37.6588 35.1918 37.1708 34.6768C36.8648 34.3578 36.1708 33.8938 35.2938 33.3037C34.0108 32.4457 31.7077 30.8987 31.5667 30.1277H41.1089C41.1819 30.1277 41.2509 30.1007 41.3049 30.0487C41.3559 29.9947 41.3839 29.9247 41.3839 29.8527L41.3819 26.4266C41.3709 20.6245 36.1228 15.9014 29.6887 15.9014ZM24.9796 28.7926C24.1885 28.7926 23.5415 28.1486 23.5415 27.3576C23.5415 26.5666 24.1875 25.9226 24.9796 25.9226C25.7716 25.9226 26.4136 26.5666 26.4136 27.3576C26.4136 28.1486 25.7706 28.7926 24.9796 28.7926ZM37.8078 28.5066H29.3577C28.6926 28.5066 28.1506 27.9926 28.1506 27.3596C28.1506 26.7266 28.6926 26.2126 29.3577 26.2126H37.8078C38.4729 26.2126 39.0119 26.7276 39.0119 27.3596C39.0119 27.9926 38.4729 28.5066 37.8078 28.5066Z" fill="#9C4040"/>
</svg>
