<svg width="172" height="515" viewBox="0 0 172 515" fill="none" xmlns="http://www.w3.org/2000/svg">
<rect x="50.0695" width="71.5278" height="515" fill="#9C4040"/>
<rect x="53.5695" y="3.5" width="64.5278" height="508" stroke="#C4C4C4" stroke-opacity="0.37" stroke-width="7"/>
<rect x="35.7639" width="100.139" height="50.632" fill="#9C4040"/>
<rect x="39.3403" y="77.3947" width="92.9861" height="21.6994" rx="10.8497" fill="#9C4040"/>
<rect x="35.7639" y="21.6994" width="100.139" height="28.9326" rx="14.4663" fill="white"/>
<rect x="25.0347" y="493.301" width="121.597" height="21.6994" rx="10.8497" fill="#9C4040"/>
<rect x="35.7639" y="478.834" width="100.139" height="14.4663" rx="7.23315" fill="#9C4040"/>
<rect x="42.9167" y="464.368" width="85.8333" height="14.4663" rx="7.23315" fill="#9C4040"/>
<ellipse cx="35.7639" cy="36.1657" rx="35.7639" ry="36.1657" fill="#9C4040"/>
<ellipse cx="135.903" cy="36.1657" rx="35.7639" ry="36.1657" fill="#9C4040"/>
<rect x="81.5417" y="99.0941" width="8.58333" height="363.104" rx="4.29167" fill="white"/>
<rect x="100.139" y="99.0941" width="8.58333" height="363.104" rx="4.29167" fill="white"/>
<rect x="62.9445" y="99.0941" width="8.58333" height="363.104" rx="4.29167" fill="white"/>
<ellipse cx="35.7639" cy="36.1657" rx="14.3056" ry="14.4663" fill="white"/>
<ellipse cx="135.903" cy="36.1657" rx="14.3056" ry="14.4663" fill="white"/>
</svg>
